<svg width="214" height="49" viewBox="0 0 214 49" fill="none" xmlns="http://www.w3.org/2000/svg">
<path d="M4.80224 14.964C4.40118 17.555 2.79956 19.3988 0 20.4967V20.3472C1.5007 19.45 2.40112 18.5012 2.70126 17.5061C1.29886 17.6048 0.45021 17.8545 0.15007 18.2537C0.349288 17.0575 0.698576 16.2093 1.20056 15.7117C1.39978 15.5109 2.60034 15.2631 4.80224 14.964ZM77.4362 22.8893C77.4362 24.3846 77.136 25.6788 76.5358 26.7764C75.9355 28.0713 75.0351 28.7207 73.8345 28.7207C73.0328 28.7207 72.4325 28.6687 72.0337 28.5715C72.0337 29.0691 72.0337 29.5666 72.0337 30.0668C72.0337 32.0597 71.7827 33.305 71.2833 33.8051C67.2806 38.3891 63.5288 40.6836 60.028 40.6836C58.5273 40.6836 57.3759 39.985 56.5764 38.5898C55.8752 37.4915 55.5259 36.2459 55.5259 34.8515C55.5259 32.5569 56.0744 29.7162 57.1767 26.3281C55.9762 27.225 53.9735 29.0687 51.1739 31.8608C48.0716 34.8515 45.8205 36.9453 44.4208 38.1412C41.8178 40.1345 39.7168 41.1319 38.1178 41.1319C36.9172 41.1319 35.8668 40.5573 34.9663 39.4122C34.0659 38.2653 33.6157 36.9446 33.6157 35.4493C33.6157 33.6545 34.216 31.3603 35.4165 28.5711C35.2147 28.6691 34.9663 28.7203 34.6662 28.7203C33.965 28.7203 33.3647 28.6683 32.8654 28.5711C32.8654 29.0687 32.8654 29.5663 32.8654 30.0665C32.8654 32.0593 32.6635 33.2552 32.2651 33.6552C27.5611 38.2395 23.7602 40.5337 20.8597 40.5337C19.359 40.5337 18.2076 39.9352 17.4081 38.7386C16.6064 37.5431 16.2076 36.0967 16.2076 34.4021C16.2076 33.804 16.4559 32.4818 16.9579 30.4395C17.4573 28.3947 17.7083 26.6265 17.7083 25.1311C17.7083 23.9349 17.5582 22.7872 17.2581 21.6919C16.0575 21.3928 14.8569 20.5446 13.6564 19.1498C12.4558 17.7528 11.6541 17.056 11.2553 17.056C10.7536 17.056 9.95378 17.9023 8.85414 19.5984C8.05201 20.8926 7.35344 22.1894 6.75316 23.4859C9.05335 24.6822 10.2048 27.2732 10.2048 31.2612H9.45442C8.35253 30.7629 7.30166 30.2164 6.30294 29.6182C5.30198 28.9199 4.80224 27.8728 4.80224 26.4784C2.49979 27.5745 1.35063 29.0698 1.35063 30.9644C1.35063 31.1629 2.32609 33.4549 4.277 37.8425C6.22791 42.2276 7.20337 45.7165 7.20337 48.3098H6.90323C6.70138 46.7136 5.55259 43.7722 3.45161 39.4866C1.54985 35.499 0.60028 32.6089 0.60028 30.8145C0.60028 28.2208 2.15013 25.8283 5.25245 23.6369C5.65127 22.3401 6.65223 20.595 8.25386 18.4033C10.0547 15.8096 11.504 14.5154 12.6059 14.5154C13.0047 14.5154 13.9565 15.4126 15.4572 17.207C15.2554 16.7068 15.1571 16.2093 15.1571 15.7117C15.1571 14.4149 15.6073 13.3192 16.5077 12.422C17.4081 11.5248 18.5078 11.0758 19.8093 11.0758C20.8083 11.0758 22.7593 11.5483 25.662 12.4967C28.5625 13.4425 31.1137 13.9173 33.3156 13.9173L31.5147 16.9079C30.1127 17.1065 27.8616 18.0036 24.7616 19.5995C22.0603 20.9939 19.8093 21.693 18.0084 21.693C17.9075 21.693 17.7083 21.693 17.4081 21.693C17.9079 23.0878 18.1585 24.5831 18.1585 26.179C18.1585 27.4736 17.9825 28.9199 17.6332 30.5154C17.2813 32.1098 17.108 33.0063 17.108 33.2074C17.108 36.3965 18.4069 37.9921 21.0098 37.9921C22.9093 37.9921 25.1109 36.9947 27.6129 35.0014C29.2119 33.7046 30.7126 32.3595 32.115 30.9644C32.115 30.2657 31.7139 29.1696 30.9144 27.6743C30.5134 26.7771 30.0632 25.8799 29.5638 24.9831L30.6143 22.441C31.5147 23.8358 32.1642 24.782 32.5652 25.2818C33.2642 25.9782 34.0145 26.3293 34.8163 26.3293C35.8154 26.3293 36.6171 25.93 37.2174 25.133C37.2174 23.6377 37.1165 22.1913 36.9173 20.7962L34.3661 4.94608C34.2651 3.95056 34.0659 3.2029 33.7658 2.70309L34.5161 0.609254L37.2174 5.54346V6.44066L35.8668 5.09486C35.7658 5.29598 35.7658 5.49449 35.8668 5.69337L38.1178 20.7958C38.2161 21.1932 38.2679 21.8922 38.2679 22.8896C38.2679 25.8803 37.4658 27.7236 35.8668 28.4223C34.8654 30.6141 34.3661 32.558 34.3661 34.2541C34.3661 35.1513 34.7153 35.9973 35.4165 36.7969C36.216 37.6937 37.166 38.1427 38.2679 38.1427C40.0687 38.1427 42.3689 36.7969 45.1711 34.1053C47.6709 31.8107 50.1729 29.4702 52.6746 27.0773C54.5741 25.4807 56.4264 24.1356 58.2272 23.0395C57.7252 22.8392 56.9749 22.2919 55.9762 21.395C54.5737 20.2967 53.8752 19.0511 53.8752 17.6567C53.8752 15.3625 55.1249 14.2175 57.6269 14.2175C62.4292 14.2175 67.6302 15.0631 73.2342 16.7595L71.2833 19.7502C69.4825 20.3487 66.2301 21.6429 61.5287 23.638C62.0281 24.435 62.5792 26.3296 63.1795 29.3203C60.4783 29.3203 59.1276 28.5207 59.1276 26.9278C59.1276 26.727 59.1768 26.3786 59.2777 25.881C59.3764 25.3812 59.4278 25.0324 59.4278 24.8343C59.0267 25.1334 58.4268 25.53 57.6269 26.0298C56.6256 29.219 56.1262 31.6122 56.1262 33.2078C56.1262 36.3969 57.4769 37.9924 60.1781 37.9924C63.0786 37.9924 66.7812 35.6493 71.2833 30.9648C71.1824 30.2661 70.7817 29.17 70.0827 27.6747C69.5811 26.8758 69.1309 26.0298 68.7321 25.1326L69.6325 22.441C70.533 23.9364 71.2315 24.8825 71.7335 25.2818C72.3338 25.9782 73.0841 26.3293 73.9846 26.3293C74.9833 26.3293 75.7854 25.93 76.3857 25.133C76.2848 23.6377 76.1347 22.1913 75.9355 20.7962L73.5344 5.09523C73.3325 3.99953 73.1333 3.20252 72.9341 2.70309L73.6844 0.609254L76.2356 5.54383V6.44103L75.0351 5.09486C74.9341 5.3943 74.9341 5.64439 75.0351 5.84253L77.2861 20.7958C77.3848 21.1928 77.4362 21.8915 77.4362 22.8893ZM10.3548 9.58084C10.3548 11.2747 9.80371 12.1233 8.70407 12.1233C7.70272 12.1233 7.20337 11.5737 7.20337 10.4784C7.20337 9.77972 7.35344 8.93411 7.65358 7.93636C8.25386 6.74009 8.554 6.04365 8.554 5.84253C8.75321 6.64215 8.80274 7.18869 8.70407 7.48738C9.80371 8.08552 10.3548 8.78421 10.3548 9.58084ZM9.90463 10.179C9.50357 9.67916 8.90366 9.33037 8.10379 9.13224C7.70272 9.52963 7.50351 9.77897 7.50351 9.87991C7.50351 10.478 7.85279 10.7771 8.554 10.7771C9.05335 10.7771 9.50357 10.576 9.90463 10.179ZM13.9565 34.8519L12.906 36.496C12.3058 36.6945 11.6541 36.8448 10.9551 36.945C9.85285 37.3423 9.30435 37.7909 9.30435 38.2911C9.80408 40.284 10.0547 41.6792 10.0547 42.4777C10.0547 44.2724 10.0033 45.3192 9.90463 45.6175C9.90463 44.5192 9.70278 43.0754 9.30435 41.281C8.90366 39.4859 8.70407 38.3393 8.70407 37.8418C8.70407 36.945 9.02747 36.3465 9.67952 36.0474C10.329 35.7476 10.9551 35.4979 11.5554 35.2997C11.1547 34.9999 10.805 34.8511 10.5049 34.8511L9.60449 35.5988V34.8511C9.90463 34.4515 10.153 34.0777 10.3548 33.7296C10.5541 33.379 10.805 33.2066 11.1052 33.2066C11.7055 33.207 12.655 33.7536 13.9565 34.8519ZM15.1571 27.3752L13.9565 29.767L11.4053 28.5715L12.3057 26.478L10.0547 25.2814L11.1052 22.8896L13.8065 24.0859L12.756 26.179L15.1571 27.3752ZM27.913 15.8612C27.3128 15.7603 25.9107 15.4126 23.7111 14.8141C21.9102 14.2164 20.5078 13.9173 19.5091 13.9173C17.2063 13.9173 16.0575 14.7633 16.0575 16.4593C16.0575 17.1554 16.3062 17.8541 16.8079 18.5528C17.2067 18.9502 17.7083 19.1513 18.3086 19.1513C19.7083 19.1513 21.31 18.7517 23.1108 17.955C26.0113 16.6579 27.6129 15.9592 27.913 15.8612ZM29.2637 27.2257C27.763 31.013 25.8612 32.9079 23.561 32.9079C21.8588 32.9079 21.0098 32.1091 21.0098 30.5154C21.0098 29.2186 22.1095 27.8736 24.3114 26.4784C23.9107 26.179 23.5096 26.0294 23.1108 26.0294C22.6092 26.0294 22.1095 26.2773 21.6101 26.7771V26.179C22.1095 25.0807 22.8107 24.5341 23.7111 24.5341C25.2118 24.5341 26.4123 24.7326 27.3128 25.133L25.5119 26.7767C24.8107 26.9752 24.0345 27.4242 23.1858 28.1233C22.3346 28.8193 21.9102 29.4175 21.9102 29.9177C21.9102 30.8149 22.7097 31.2635 24.3114 31.2635C25.4114 31.2635 26.511 30.6653 27.6129 29.4694C28.1123 28.6694 28.6634 27.9218 29.2637 27.2257ZM31.9649 6.88925C31.9649 8.08514 31.5639 8.68365 30.7644 8.68365C30.3633 8.68365 29.9623 8.48514 29.5638 8.08514C29.2637 8.88477 28.8135 9.2814 28.2132 9.2814C27.512 9.2814 27.1627 8.83281 27.1627 7.93561C27.1627 7.3371 27.1627 6.73935 27.1627 6.14122C26.9608 6.34234 26.7125 6.64103 26.4123 7.03804V6.43991C26.6116 5.94234 27.1113 5.29486 27.913 4.49598C27.6129 6.58944 27.8121 7.63617 28.5133 7.63617C29.0127 7.63617 29.2637 7.28776 29.2637 6.58907C29.2637 6.29 29.1627 5.69224 28.9635 4.79467L29.4137 3.8986C29.7139 4.39841 29.9135 5.14608 30.014 6.14159C30.014 6.84028 30.2628 7.18832 30.7644 7.18832C31.0645 7.18832 31.2146 6.94047 31.2146 6.44066L30.7644 4.49673L31.3647 3.45C31.7635 4.74682 31.9649 5.89411 31.9649 6.88925ZM40.5189 32.6089C40.418 34.0033 39.9187 34.7027 39.0182 34.7027C38.1178 34.7027 37.6676 34.2537 37.6676 33.3565C37.6676 32.0597 38.3666 30.5644 39.7686 28.8706C39.0674 30.4642 38.7181 31.6111 38.7181 32.3098C38.7181 33.0055 38.9665 33.3565 39.4684 33.3565C39.9678 33.3565 40.2679 33.1064 40.3689 32.6089H40.5189ZM43.5203 23.936C43.5203 26.0291 43.2693 27.6231 42.77 28.721H42.4698C42.5681 26.527 42.4698 24.235 42.1697 21.8429L39.4684 4.9457C39.3675 3.95019 39.1683 3.20252 38.8682 2.70271L39.6185 0.60888L42.1697 5.54346V6.44066L40.9691 5.09449C40.8682 5.29561 40.8682 5.49411 40.9691 5.69299L43.3703 21.693C43.4686 22.1906 43.5203 22.9382 43.5203 23.936ZM50.2735 5.24439C50.2735 5.64365 50.1234 6.09299 49.8233 6.59019C49.5231 6.29112 49.2721 6.14196 49.0729 6.14196C48.5713 6.14196 48.1725 6.84066 47.8724 8.23542C47.6705 9.13262 47.5205 10.1281 47.4222 11.2261C47.122 10.4268 46.6204 9.38009 45.9215 8.08589C45.8205 8.58645 45.5204 8.83355 45.021 8.83355C44.2189 8.83355 43.8205 8.38533 43.8205 7.48776C43.8205 6.39168 44.1701 5.8429 44.871 5.8429C45.7714 5.8429 46.5709 6.89 47.2721 8.98309C47.8724 5.3943 48.6227 3.59991 49.5231 3.59991C50.0225 3.59953 50.2735 4.14869 50.2735 5.24439ZM50.4236 13.6182C50.0225 16.3094 48.4726 18.1532 45.7714 19.1509L45.6213 19.0014C47.122 18.1046 48.0224 17.1554 48.3226 16.1603C46.9205 16.2586 46.0715 16.5083 45.7714 16.9079C45.9706 15.7117 46.3199 14.8635 46.8219 14.3659C47.0211 14.1651 48.2217 13.9173 50.4236 13.6182ZM50.2735 22.8893L49.0729 25.281L46.5217 24.0855L47.7223 21.693L50.2735 22.8893ZM52.9748 38.8893C52.9748 40.284 52.4728 40.9831 51.474 40.9831C50.5736 40.9831 50.1234 40.5349 50.1234 39.6369C50.1234 38.3401 50.822 36.8448 52.2244 35.1509H52.3745C51.5723 36.7446 51.1739 37.8919 51.1739 38.5902C51.1739 39.2863 51.4226 39.6369 51.9243 39.6369C52.424 39.6369 52.7238 39.3872 52.8247 38.8893H52.9748ZM55.676 6.88925C55.676 8.08514 55.4254 9.43131 54.9257 10.9266C55.0243 10.1278 55.0757 9.23281 55.0757 8.23505C55.0757 6.44066 54.5246 5.04589 53.425 4.04813L53.575 2.25374C54.274 2.65299 54.7992 3.35206 55.1508 4.3472C55.5001 5.34495 55.676 6.19281 55.676 6.88925ZM68.1318 18.7023C65.3297 17.5061 62.0773 16.9079 58.3773 16.9079C56.5764 16.9079 55.3759 17.1065 54.7756 17.5061C54.7756 17.7046 55.425 18.2773 56.7265 19.2261C58.0254 20.1719 59.1276 21.0952 60.028 21.9921C62.129 20.9943 64.8303 19.8986 68.1318 18.7023ZM71.4334 1.80514C71.4334 2.40365 71.2574 3.10234 70.9081 3.89897C70.5562 4.69785 70.1319 5.29561 69.6325 5.69337C70.2328 4.4971 70.533 3.6515 70.533 3.15131C65.4306 4.7472 60.7784 7.43879 56.5764 11.2261C56.6751 10.7259 56.7757 10.2283 56.8766 9.73075C58.5765 8.03692 60.8534 6.44103 63.7048 4.9457C66.5561 3.45 69.1309 2.40327 71.4334 1.80514ZM67.6816 28.1229C67.8808 28.9199 67.6816 29.3681 67.0813 29.4691C66.7812 29.5674 66.331 29.3681 65.7307 28.8706C65.3297 29.5666 64.6802 30.5147 63.7798 31.7121C62.6775 33.0063 61.2286 33.8059 59.4278 34.1042L58.0771 34.4033C59.4769 33.7046 61.0271 32.7072 62.7293 31.4126C64.1291 30.3143 65.0787 29.2186 65.5806 28.1229C65.9795 27.3236 66.331 26.8754 66.6311 26.7764C67.1305 26.6769 67.4798 27.1251 67.6816 28.1229ZM68.8822 10.3285C68.8822 11.5248 68.4811 12.1233 67.6816 12.1233C67.2806 12.1233 66.8799 11.8732 66.4811 11.3756C66.1809 12.1722 65.7307 12.5715 65.1304 12.5715C64.5302 12.5715 64.1782 12.1726 64.0799 11.3756C64.0799 10.6769 64.0799 10.0294 64.0799 9.43168C63.8785 9.73075 63.6793 10.0298 63.4797 10.3285V9.87991C63.578 9.3801 64.0282 8.73486 64.8303 7.93598C64.5302 9.92925 64.7294 10.9266 65.4306 10.9266C65.9303 10.9266 66.1809 10.6276 66.1809 10.0294C66.1809 9.73038 66.08 9.08365 65.8808 8.08552L66.4811 7.33785C66.6803 7.73748 66.8304 8.43617 66.9313 9.43168C66.9313 10.1281 67.18 10.4784 67.6816 10.4784C67.9818 10.4784 68.1318 10.2773 68.1318 9.88028C68.1318 9.77935 67.9818 9.13262 67.6816 7.93636L68.2819 6.7401C68.6807 8.03654 68.8822 9.2328 68.8822 10.3285ZM67.3815 28.5715C66.9804 27.973 66.5302 27.8238 66.0309 28.1229C66.6311 28.5199 67.0813 28.6694 67.3815 28.5715ZM81.0379 34.7023C81.0379 35.6975 80.7377 36.1977 80.1374 36.1977C79.7364 36.1977 79.2862 36.0485 78.7868 35.7487C77.0843 38.8384 73.9328 40.3337 69.3324 40.2347H69.1823V40.0855C73.6844 38.9872 76.735 37.4429 78.3366 35.4504C77.835 35.2493 77.5863 34.9502 77.5863 34.5536C77.5863 34.2537 77.7363 33.9038 78.0365 33.5061C78.3366 33.1072 78.585 32.9079 78.7868 32.9079L78.6367 32.3098L78.7868 32.1603C78.986 32.1603 79.3353 32.3588 79.8373 32.7584V32.9079C80.6368 33.8051 81.0379 34.4033 81.0379 34.7023ZM82.6886 23.936C82.6886 26.0291 82.438 27.6231 81.9383 28.721H81.6381C81.7364 26.527 81.5864 24.235 81.1879 21.8429L78.6367 4.9457C78.4349 3.95019 78.2357 3.20252 78.0365 2.70271L78.7868 0.60888L81.338 5.54346V6.44066L80.1374 5.09449C80.0365 5.29561 79.9874 5.49411 79.9874 5.69299L82.5386 21.693C82.6372 22.1906 82.6886 22.9382 82.6886 23.936ZM79.3871 33.9547C79.3871 33.7536 79.2862 33.6552 79.087 33.6552C78.6863 33.6552 78.3857 33.8048 78.1865 34.1038C78.3857 34.4029 78.6863 34.6014 79.087 34.7023C79.087 34.6014 79.1361 34.4777 79.237 34.3285C79.3353 34.179 79.3871 34.0526 79.3871 33.9547ZM214 28.422C214 29.8167 213.674 30.9644 213.024 31.8612C212.372 32.7577 211.648 33.207 210.848 33.207C209.347 33.207 208.297 32.2582 207.697 30.3655C207.296 32.2582 206.445 33.207 205.145 33.207C203.945 33.207 203.143 32.4074 202.745 30.8149C201.943 32.7076 200.543 33.656 198.543 33.656C197.842 33.656 197.268 33.3805 196.817 32.8339C196.367 32.2848 196.141 31.6605 196.141 30.9648C196.141 30.6653 196.141 30.4156 196.141 30.2171C182.035 34.6022 167.628 36.7969 152.921 36.7969C145.816 36.7969 138.864 36.1984 132.061 35.0018C125.557 34.0044 120.705 32.6586 117.505 30.9648C117.505 32.3592 117.452 33.7543 117.354 35.1513H117.055C115.854 34.3524 115.104 33.4063 114.804 32.3102C114.703 31.5106 114.628 30.7629 114.579 30.0672C114.526 29.3685 113.902 29.0197 112.703 29.0197C111.6 29.0197 109.725 30.6141 107.075 33.8055C104.423 36.9943 102.397 38.5906 100.997 38.5906C100.195 38.5906 99.4965 38.2167 98.8962 37.4691C98.2959 36.7214 97.9958 35.6982 97.9958 34.4036C97.9958 33.705 98.1459 32.8571 98.446 31.8616C97.9444 32.0601 97.445 32.1607 96.9453 32.1607C94.943 32.1607 93.6438 30.8149 93.0435 28.1233C92.8416 31.413 91.3409 33.0578 88.5414 33.0578C87.3408 33.0578 86.4404 32.4081 85.8401 31.1139C85.4394 30.1162 85.289 28.9693 85.3899 27.6747C85.3899 27.4739 85.4882 26.7775 85.69 25.5812C85.7887 24.5835 85.8401 23.6863 85.8401 22.8896C85.1389 23.8851 84.6395 25.182 84.3394 26.7767C84.1379 27.8732 83.9387 28.9685 83.7391 30.0672C83.3381 31.8616 82.6886 32.758 81.7882 32.758C81.087 32.758 80.4867 32.1838 79.9874 31.0384C79.4854 29.8915 79.237 28.6691 79.237 27.3749C79.237 25.9779 79.3353 24.4336 79.5372 22.7393L79.8373 22.8889C79.7364 23.6855 79.6872 24.4825 79.6872 25.2807C79.6872 28.6687 80.3862 30.3655 81.7882 30.3655C82.2876 30.3655 82.7378 29.6179 83.1388 28.1225C83.8374 25.6294 84.2385 24.1831 84.3394 23.7857C85.0384 22.09 85.9388 20.9446 87.0407 20.3468V22.2904C86.6396 24.8818 86.4404 26.4777 86.4404 27.0758C86.4404 29.2668 87.2399 30.3655 88.8415 30.3655C89.8406 30.3655 90.7174 29.9659 91.4677 29.1693C92.2181 28.3704 92.5933 27.4242 92.5933 26.3281L91.5428 20.4967L92.2931 18.4033C92.7925 19.3988 93.0926 20.1977 93.1935 20.7954C93.4937 22.4893 93.742 24.2347 93.9439 26.0291C94.5442 28.5199 95.6438 29.7674 97.2454 29.7674C98.2442 29.7674 98.9454 29.3685 99.3464 28.5719C98.8448 27.4736 98.3454 26.3779 97.8457 25.2814C97.1445 23.4874 96.7435 22.0904 96.6452 21.0952L96.1949 20.0481L96.7952 17.9547L98.8962 21.2444V21.9921C98.5961 21.7909 98.2959 21.5435 97.9958 21.2444C97.8949 21.4429 97.8949 21.5435 97.9958 21.5435C99.3956 24.7326 100.097 26.9266 100.097 28.1233C100.097 29.9177 99.6961 31.1139 98.8962 31.7124C98.5961 32.7076 98.446 33.4552 98.446 33.9554C98.446 35.3498 99.145 36.0493 100.547 36.0493C101.846 36.0493 103.797 34.4276 106.4 31.1894C109 27.9487 111.052 26.3296 112.553 26.3296C113.052 26.3296 113.753 26.6287 114.654 27.2264L115.404 25.4317C116.804 27.4246 120.957 29.2676 127.86 30.964C135.762 32.758 144.818 33.6552 155.022 33.6552C161.925 33.6552 169.527 33.0571 177.833 31.8608C185.036 30.7625 191.539 29.4167 197.342 27.8235C197.141 28.1225 197.042 28.4698 197.042 28.8702C197.042 29.4687 197.241 30.0152 197.642 30.5143C198.041 31.0122 198.491 31.262 198.994 31.262C199.992 31.262 201.043 30.7621 202.144 29.7666L204.095 27.8238L204.245 27.9734C204.245 28.1719 204.245 28.3707 204.245 28.5719C204.245 29.9659 204.745 30.6653 205.746 30.6653C206.245 30.6653 206.797 30.2171 207.396 29.3195C208.095 28.1233 208.597 27.425 208.897 27.2257H209.047C209.047 27.4242 209.047 27.6231 209.047 27.8242C209.047 28.6208 209.321 29.3431 209.872 29.9924C210.421 30.6392 210.946 30.9644 211.448 30.9644C212.447 30.9644 212.949 30.5651 212.949 29.7678C212.949 28.8713 212.198 27.0769 210.698 24.3853C209.096 21.493 208.245 19.7498 208.146 19.1517C208.046 18.9506 207.896 18.6769 207.696 18.3293C207.495 17.9786 207.396 17.7543 207.396 17.6564L207.846 15.4134L210.848 18.5532V19.1509L209.497 18.5524V18.8519C210.297 20.0478 211.096 21.244 211.898 22.4407C213.299 24.9311 214 26.9266 214 28.422ZM80.5877 35.1509C80.3862 34.9502 80.086 34.6018 79.6872 34.1042L79.3871 34.8519C79.6872 35.0504 79.9874 35.1509 80.2875 35.1509C80.3862 35.1509 80.4867 35.1509 80.5877 35.1509ZM98.446 0.309814C98.446 0.809628 98.2441 1.4571 97.8457 2.25374C97.445 3.05262 97.044 3.70009 96.6452 4.19766C97.2454 3.0014 97.5456 2.10383 97.5456 1.50608C91.3409 3.50122 86.0885 6.44066 81.7882 10.3285C81.7882 9.82869 81.8869 9.28178 82.0884 8.68402C83.7883 7.09075 86.389 5.3943 89.892 3.59953C93.1935 1.9057 96.0449 0.809628 98.446 0.309814ZM92.1431 35.3005C92.1431 35.798 91.9412 36.2956 91.5428 36.7958C91.3409 36.496 91.0926 36.3472 90.7924 36.3472C90.2908 36.3472 89.892 36.9939 89.5919 38.2911C89.4909 39.2863 89.3412 40.284 89.1417 41.2818C88.9398 40.5831 88.4405 39.5364 87.641 38.1416C87.54 38.7397 87.289 39.0388 86.8906 39.0388C85.9902 39.0388 85.54 38.5386 85.54 37.5435C85.54 36.5457 85.9388 36.0481 86.7405 36.0481C87.54 36.0481 88.3395 37.0949 89.1417 39.1879C89.641 35.5988 90.3914 33.8051 91.3927 33.8051C91.8921 33.8051 92.1431 34.3027 92.1431 35.3005ZM92.4432 13.1696C92.4432 14.3659 91.993 14.964 91.0926 14.964C90.7924 14.964 90.3914 14.7139 89.892 14.2164C89.6902 15.013 89.2399 15.4126 88.5414 15.4126C87.9411 15.4126 87.5892 15.013 87.4909 14.2164C87.4909 13.5177 87.4909 12.8706 87.4909 12.2724C87.289 12.5715 87.0898 12.8709 86.8906 13.1696V12.5715C87.0898 12.1726 87.54 11.5741 88.2412 10.7771C88.0394 12.77 88.2412 13.7678 88.8415 13.7678C89.3412 13.7678 89.5919 13.4171 89.5919 12.721C89.5919 12.5199 89.4909 11.9218 89.2917 10.9266L89.892 10.179C90.1921 10.5764 90.3422 11.2747 90.3422 12.2724C90.4409 12.9685 90.741 13.3192 91.2426 13.3192C91.5428 13.3192 91.6928 13.1188 91.6928 12.721C91.6928 12.6205 91.5428 11.9734 91.2426 10.7771L91.6928 9.58084C92.1922 10.8754 92.4432 12.0713 92.4432 13.1696ZM96.1949 11.5248C96.1949 12.721 95.9443 14.0668 95.4446 15.5622C95.5433 14.7633 95.5947 13.8665 95.5947 12.8709C95.5947 11.0762 95.0435 9.67916 93.9439 8.68402L94.094 6.7401C94.6942 7.23991 95.194 7.98757 95.5947 8.98309C95.9931 9.97785 96.1949 10.8261 96.1949 11.5248ZM104.299 23.936C104.299 26.0291 104.097 27.6231 103.698 28.721H103.398C103.497 26.527 103.347 24.235 102.948 21.8429L100.397 4.9457C100.195 3.95019 99.9958 3.20252 99.7966 2.70271L100.547 0.60888L103.098 5.54346V6.44066L101.898 5.09449C101.797 5.29561 101.748 5.49411 101.748 5.69299L104.299 21.693C104.299 22.1906 104.299 22.9382 104.299 23.936ZM113.903 34.2534C114.002 35.1506 113.802 35.6485 113.303 35.7487C113.003 35.7487 112.501 35.5483 111.802 35.1506C111.402 35.847 110.801 36.7442 110.001 37.8422C108.801 39.1364 107.3 39.9842 105.499 40.3842L104.299 40.5337C105.598 39.9352 107.099 38.9865 108.801 37.6922C110.302 36.4956 111.3 35.3483 111.802 34.2526C112.201 33.4537 112.501 33.0051 112.703 32.9068C113.202 32.9079 113.603 33.3565 113.903 34.2534ZM113.003 7.48738C113.003 7.88664 112.853 8.33598 112.553 8.83318C112.252 8.53411 112.001 8.38495 111.802 8.38495C111.3 8.38495 110.902 9.03393 110.602 10.3285C110.4 11.425 110.25 12.4223 110.152 13.3192C109.95 12.6208 109.451 11.6235 108.651 10.3285C108.55 10.8264 108.25 11.0762 107.751 11.0762C106.949 11.0762 106.551 10.6279 106.551 9.73038C106.551 8.6343 106.9 8.08552 107.601 8.08552C108.501 8.08552 109.301 9.13262 110.002 11.2257C110.602 7.63692 111.353 5.84253 112.253 5.84253C112.752 5.84253 113.003 6.39168 113.003 7.48738ZM113.453 15.7117L112.402 17.3565C111.801 17.5547 111.15 17.7539 110.451 17.9547C109.349 18.2537 108.801 18.7023 108.801 19.3005C109.3 21.1932 109.551 22.539 109.551 23.3382C109.551 25.1326 109.499 26.1793 109.401 26.478C109.401 25.3797 109.2 23.9595 108.801 22.2167C108.401 20.4713 108.2 19.3498 108.2 18.8522C108.2 17.8545 108.524 17.2074 109.176 16.9083C109.825 16.6093 110.451 16.3592 111.052 16.1607C110.55 15.9595 110.152 15.8616 109.851 15.8616C109.95 15.8616 109.65 16.0597 108.952 16.4597L109.101 15.7121C109.3 15.413 109.526 15.0392 109.777 14.5906C110.025 14.142 110.302 13.9177 110.602 13.9177C111.202 13.9173 112.152 14.5154 113.453 15.7117ZM113.603 34.7023C113.203 34.1038 112.752 33.9547 112.252 34.2534C112.752 34.6508 113.202 34.8003 113.603 34.7023ZM116.755 30.665C116.454 30.4642 116.004 30.0156 115.403 29.3192C115.403 29.8167 115.528 30.3887 115.778 31.0388C116.027 31.6859 116.304 32.0107 116.604 32.0107C116.703 32.0104 116.755 31.5621 116.755 30.665ZM193.891 36.9453C193.389 36.9453 193.039 36.6459 192.84 36.0485C192.139 36.9453 191.489 37.3943 190.889 37.3943C190.688 37.3943 190.365 37.2448 189.914 36.9461C189.464 36.6463 189.187 36.4967 189.088 36.4967C188.586 36.4967 187.637 36.7965 186.237 37.3939C184.435 38.1906 182.984 38.7887 181.884 39.1887C179.683 39.8844 177.281 40.2351 174.681 40.2351L174.532 39.936C176.731 39.936 178.932 39.487 181.135 38.5898C182.335 38.1902 184.035 37.3936 186.238 36.1977C187.837 35.3008 188.988 34.8515 189.689 34.8515C189.888 34.8515 190.188 35.05 190.589 35.45C190.988 35.8474 191.339 36.0485 191.64 36.0485C192.038 36.0485 192.489 35.5483 192.991 34.5532L193.44 34.2534C193.339 35.0508 193.59 35.45 194.191 35.45C194.492 35.45 194.792 34.9498 195.091 33.9547L195.391 33.8055C195.391 35.8986 194.89 36.9453 193.891 36.9453ZM205.746 9.73038C205.746 10.1278 205.544 10.6276 205.145 11.2257C204.845 10.8261 204.594 10.6276 204.395 10.6276C203.893 10.6276 203.495 11.3233 203.194 12.721C203.093 13.6182 202.944 14.5644 202.745 15.5622C202.444 14.8638 201.942 13.8665 201.244 12.5715C201.142 13.0694 200.843 13.3192 200.344 13.3192C199.541 13.3192 199.143 12.8709 199.143 11.9734C199.143 10.875 199.493 10.3285 200.194 10.3285C201.094 10.3285 201.893 11.3756 202.595 13.4687C203.195 9.87991 203.945 8.08552 204.846 8.08552C205.446 8.08552 205.746 8.63467 205.746 9.73038ZM204.546 21.2444C204.546 23.0388 203.994 23.936 202.895 23.936C201.893 23.936 201.394 23.3868 201.394 22.2911C201.394 21.5928 201.593 20.7446 201.995 19.7491C202.595 18.5528 202.895 17.8545 202.895 17.6556C203.094 18.4522 203.144 19.0014 203.045 19.3001C204.044 19.8986 204.546 20.5457 204.546 21.2444ZM204.095 21.9921C203.695 21.4922 203.094 21.0952 202.295 20.7958C201.994 21.2937 201.844 21.5928 201.844 21.693C201.844 22.1906 202.194 22.4407 202.895 22.4407C203.394 22.4407 203.795 22.2911 204.095 21.9921ZM211.599 36.1977L210.548 38.5898L207.997 37.2433L209.048 34.8515L211.599 36.1977Z" fill="white"/>
</svg>
