<svg width="26" height="25" viewBox="0 0 26 25" fill="none" xmlns="http://www.w3.org/2000/svg">
<path d="M20.9993 7.13492L15.2291 3.11956C13.6563 2.02355 11.2465 2.08967 9.73944 3.2635L4.73938 7.18622C3.74137 7.96875 2.95543 9.57075 2.95863 10.8308L2.97616 17.7307C2.98264 20.2807 5.05791 22.3555 7.6079 22.349L18.3879 22.3216C20.9379 22.3151 23.0026 20.2399 22.9961 17.6899L22.9789 10.9099C22.9755 9.55991 22.1013 7.90212 20.9993 7.13492ZM13.7377 18.3334C13.7388 18.7434 13.3996 19.0843 12.9896 19.0853C12.5796 19.0863 12.2388 18.7472 12.2377 18.3372L12.2301 15.3372C12.2291 14.9272 12.5682 14.5864 12.9782 14.5853C13.3882 14.5843 13.7291 14.9234 13.7301 15.3334L13.7377 18.3334Z" fill="#20C39C"/>
</svg>
