<svg width="26" height="25" viewBox="0 0 26 25" fill="none" xmlns="http://www.w3.org/2000/svg">
<path d="M13.1303 12.2868C13.1003 12.2869 13.0803 12.2869 13.0503 12.287C13.0003 12.2771 12.9303 12.2773 12.8703 12.2875C9.97007 12.2048 7.77429 9.93039 7.76715 7.1204C7.75989 4.26041 10.084 1.9245 12.944 1.91724C15.8039 1.90997 18.1399 4.23405 18.1471 7.09404C18.1443 9.90406 15.9501 12.1896 13.1603 12.2867C13.1503 12.2867 13.1403 12.2868 13.1303 12.2868ZM12.9478 3.41723C10.9178 3.42239 9.26199 5.0866 9.26715 7.11659C9.27222 9.11659 10.8363 10.7226 12.8265 10.7876C12.8765 10.7774 13.0165 10.7771 13.1465 10.7868C15.1062 10.6918 16.6421 9.07787 16.6471 7.09785C16.642 5.06786 14.9778 3.41208 12.9478 3.41723Z" fill="#BDBDBD"/>
<path d="M13.168 23.2168C11.2081 23.2218 9.23679 22.7268 7.74426 21.7305C6.35192 20.8141 5.58873 19.556 5.58525 18.186C5.58177 16.816 6.33854 15.5441 7.72617 14.6106C10.7211 12.613 15.5811 12.6006 18.5661 14.583C19.9485 15.4995 20.7217 16.7576 20.7251 18.1276C20.7286 19.4976 19.9719 20.7695 18.5842 21.703C17.0868 22.7068 15.128 23.2118 13.168 23.2168ZM8.55937 15.8685C7.601 16.5109 7.08308 17.3322 7.08527 18.1922C7.08743 19.0422 7.61951 19.8609 8.5711 20.4884C11.0653 22.1521 15.2653 22.1414 17.7511 20.4651C18.7094 19.8227 19.2274 19.0014 19.2252 18.1414C19.223 17.2914 18.6909 16.4727 17.7393 15.8451C15.2451 14.1915 11.0451 14.2021 8.55937 15.8685Z" fill="#BDBDBD"/>
</svg>
