<svg width="25" height="25" viewBox="0 0 25 25" fill="none" xmlns="http://www.w3.org/2000/svg">
<path d="M3.98909 19.6663C3.57909 19.6673 3.23823 19.3282 3.23718 18.9182L3.20925 7.91819C3.19804 3.50821 4.53464 2.16481 8.94462 2.15361L15.9446 2.13583C20.3546 2.12463 21.698 3.46122 21.7092 7.87121L21.7346 17.8712C21.735 18.0312 21.7354 18.1812 21.7258 18.3412C21.6968 18.7513 21.3276 19.0722 20.9276 19.0432C20.5175 19.0143 20.1966 18.6551 20.2255 18.245C20.2352 18.125 20.2349 17.995 20.2346 17.875L20.2092 7.87502C20.2001 4.30503 19.5284 3.62673 15.9484 3.63582L8.94843 3.6536C5.36844 3.6627 4.70017 4.3444 4.70924 7.91438L4.73718 18.9143C4.73822 19.3243 4.39909 19.6652 3.98909 19.6663Z" fill="#BDBDBD"/>
<path d="M17.4992 23.6319L7.49924 23.6573C5.15924 23.6632 3.2444 21.7581 3.23846 19.4181L3.2368 18.7681C3.23175 16.7781 4.84766 15.164 6.82765 15.1589L20.9776 15.123C21.3876 15.122 21.7285 15.4611 21.7295 15.8711L21.7384 19.3711C21.7443 21.7111 19.8392 23.6259 17.4992 23.6319ZM6.83146 16.6589C5.67146 16.6619 4.73385 17.6043 4.7368 18.7643L4.73845 19.4143C4.74231 20.9343 5.97543 22.1611 7.49543 22.1573L17.4954 22.1319C19.0154 22.128 20.2423 20.8949 20.2384 19.3749L20.2314 16.6249L6.83146 16.6589Z" fill="#BDBDBD"/>
<path d="M16.4611 8.63451L8.46114 8.65483C8.05115 8.65587 7.71028 8.31673 7.70924 7.90674C7.7082 7.49674 8.04734 7.15587 8.45733 7.15483L16.4573 7.13451C16.8673 7.13347 17.2082 7.47261 17.2092 7.88261C17.2103 8.29261 16.8711 8.63347 16.4611 8.63451Z" fill="#BDBDBD"/>
<path d="M13.47 12.1421L8.47002 12.1548C8.06003 12.1559 7.71916 11.8167 7.71812 11.4067C7.71708 10.9967 8.05622 10.6559 8.46621 10.6548L13.4662 10.6421C13.8762 10.6411 14.2171 10.9802 14.2181 11.3902C14.2191 11.8002 13.88 12.1411 13.47 12.1421Z" fill="#BDBDBD"/>
</svg>
