<svg width="25" height="25" viewBox="0 0 25 25" fill="none" xmlns="http://www.w3.org/2000/svg">
<path d="M15.4995 22.8605L9.49952 22.8758C4.06954 22.8895 1.74365 20.5754 1.72986 15.1455L1.71462 9.14548C1.70083 3.7155 4.01493 1.38962 9.44491 1.37582L15.4449 1.36058C20.8749 1.34679 23.2008 3.66089 23.2146 9.09087L23.2298 15.0909C23.2436 20.5208 20.9295 22.8467 15.4995 22.8605ZM9.44872 2.87582C4.83874 2.88753 3.20291 4.53169 3.21462 9.14167L3.22986 15.1417C3.24157 19.7516 4.88573 21.3875 9.49571 21.3758L15.4957 21.3605C20.1057 21.3488 21.7415 19.7047 21.7298 15.0947L21.7146 9.09468C21.7028 4.4847 20.0587 2.84887 15.4487 2.86058L9.44872 2.87582Z" fill="#BDBDBD"/>
<path d="M11.2433 16.4913C10.8233 16.4924 10.4331 16.3934 10.0826 16.1943C9.28139 15.7363 8.819 14.7975 8.81598 13.6075L8.80846 10.6475C8.80547 9.46749 9.26305 8.51632 10.0619 8.05429C10.8607 7.59226 11.9009 7.65962 12.9324 8.257L15.5062 9.73047C16.5277 10.3179 17.1199 11.1864 17.1222 12.1064C17.1245 13.0264 16.5367 13.8979 15.5182 14.4905L12.952 15.977C12.3729 16.3184 11.7833 16.4899 11.2433 16.4913ZM11.2349 9.25131C11.0749 9.25172 10.935 9.28208 10.8252 9.35235C10.5057 9.54317 10.3169 10.0136 10.3185 10.6436L10.326 13.6036C10.3276 14.2336 10.5088 14.7032 10.8393 14.8923C11.1597 15.0815 11.6595 15.0003 12.2087 14.6789L14.7749 13.1923C15.3241 12.8709 15.6331 12.4802 15.6322 12.1102C15.6313 11.7402 15.3202 11.3409 14.7695 11.0323L12.1957 9.55887C11.8352 9.34979 11.5049 9.25063 11.2349 9.25131Z" fill="#BDBDBD"/>
</svg>
